<svg width="62" height="49" viewBox="0 0 62 49" fill="none" xmlns="http://www.w3.org/2000/svg">
<path opacity="0.7" d="M28.0298 37.5088C28.0298 40.4046 26.8534 42.9385 24.5005 45.1104C22.1929 47.2822 19.4554 48.3682 16.2881 48.3682C11.3109 48.3682 7.48747 46.7166 4.81787 43.4136C2.14827 40.1105 0.813477 35.5405 0.813477 29.7036C0.813477 24.2739 3.09847 18.799 7.66846 13.2788C12.2837 7.75863 17.8265 3.57324 24.2969 0.722656L27.2832 5.5415C22.1702 8.03011 18.1659 10.9259 15.27 14.229C12.3742 17.5321 10.7 21.5365 10.2476 26.2422H14.0483C16.8537 26.2422 19.1387 26.5589 20.9033 27.1924C22.668 27.8258 24.0933 28.7082 25.1792 29.8394C26.2199 30.9253 26.9438 32.1243 27.3511 33.4365C27.8035 34.7487 28.0298 36.1061 28.0298 37.5088ZM61.4902 37.5088C61.4902 40.4046 60.3138 42.9385 57.9609 45.1104C55.6533 47.2822 52.9159 48.3682 49.7485 48.3682C44.7713 48.3682 40.9479 46.7166 38.2783 43.4136C35.6087 40.1105 34.2739 35.5405 34.2739 29.7036C34.2739 24.2739 36.5589 18.799 41.1289 13.2788C45.7441 7.75863 51.2869 3.57324 57.7573 0.722656L60.7437 5.5415C55.6307 8.03011 51.6263 10.9259 48.7305 14.229C45.8346 17.5321 44.1605 21.5365 43.708 26.2422H47.5088C50.3141 26.2422 52.5991 26.5589 54.3638 27.1924C56.1284 27.8258 57.5537 28.7082 58.6396 29.8394C59.6803 30.9253 60.4043 32.1243 60.8115 33.4365C61.264 34.7487 61.4902 36.1061 61.4902 37.5088Z" fill="white"/>
</svg>
